{
    "asset" : {
        "generator" : "Khronos glTF Blender I/O v1.1.46",
        "version" : "2.0"
    },
    "scene" : 0,
    "scenes" : [
        {
            "name" : "Scene",
            "nodes" : [
                0
            ]
        }
    ],
    "nodes" : [
        {
            "mesh" : 0,
            "name" : "Plane"
        }
    ],
    "meshes" : [
        {
            "name" : "Plane",
            "primitives" : [
                {
                    "attributes" : {
                        "POSITION" : 0,
                        "NORMAL" : 1,
                        "TEXCOORD_0" : 2
                    },
                    "indices" : 3
                }
            ]
        }
    ],
    "accessors" : [
        {
            "bufferView" : 0,
            "componentType" : 5126,
            "count" : 591,
            "max" : [
                32,
                5.440865516662598,
                32
            ],
            "min" : [
                -32,
                -0.20000000298023224,
                -32
            ],
            "type" : "VEC3"
        },
        {
            "bufferView" : 1,
            "componentType" : 5126,
            "count" : 591,
            "type" : "VEC3"
        },
        {
            "bufferView" : 2,
            "componentType" : 5126,
            "count" : 591,
            "type" : "VEC2"
        },
        {
            "bufferView" : 3,
            "componentType" : 5123,
            "count" : 1200,
            "type" : "SCALAR"
        }
    ],
    "bufferViews" : [
        {
            "buffer" : 0,
            "byteLength" : 7092,
            "byteOffset" : 0
        },
        {
            "buffer" : 0,
            "byteLength" : 7092,
            "byteOffset" : 7092
        },
        {
            "buffer" : 0,
            "byteLength" : 4728,
            "byteOffset" : 14184
        },
        {
            "buffer" : 0,
            "byteLength" : 2400,
            "byteOffset" : 18912
        }
    ],
    "buffers" : [
        {
            "byteLength" : 21312,
            "uri" : "data:application/octet-stream;base64,"
        }
    ]
}
