{
    "asset" : {
        "generator" : "Khronos glTF Blender I/O v1.1.46",
        "version" : "2.0"
    },
    "scene" : 0,
    "scenes" : [
        {
            "name" : "Scene",
            "nodes" : [
                0
            ]
        }
    ],
    "nodes" : [
        {
            "mesh" : 0,
            "name" : "Cube"
        }
    ],
    "meshes" : [
        {
            "name" : "Cube",
            "primitives" : [
                {
                    "attributes" : {
                        "POSITION" : 0,
                        "NORMAL" : 1,
                        "TEXCOORD_0" : 2
                    },
                    "indices" : 3
                }
            ]
        }
    ],
    "accessors" : [
        {
            "bufferView" : 0,
            "componentType" : 5126,
            "count" : 66912,
            "max" : [
                3.990000009536743,
                4,
                7
            ],
            "min" : [
                -3.990000009536743,
                0,
                -7
            ],
            "type" : "VEC3"
        },
        {
            "bufferView" : 1,
            "componentType" : 5126,
            "count" : 66912,
            "type" : "VEC3"
        },
        {
            "bufferView" : 2,
            "componentType" : 5126,
            "count" : 66912,
            "type" : "VEC2"
        },
        {
            "bufferView" : 3,
            "componentType" : 5125,
            "count" : 88848,
            "type" : "SCALAR"
        }
    ],
    "bufferViews" : [
        {
            "buffer" : 0,
            "byteLength" : 802944,
            "byteOffset" : 0
        },
        {
            "buffer" : 0,
            "byteLength" : 802944,
            "byteOffset" : 802944
        },
        {
            "buffer" : 0,
            "byteLength" : 535296,
            "byteOffset" : 1605888
        },
        {
            "buffer" : 0,
            "byteLength" : 355392,
            "byteOffset" : 2141184
        }
    ],
    "buffers" : [
        {
            "byteLength" : 2496576,
            "uri" : "data:application/octet-stream;base64,"
        }
    ]
}
