{
    "asset" : {
        "generator" : "Khronos glTF Blender I/O v1.1.46",
        "version" : "2.0"
    },
    "scene" : 0,
    "scenes" : [
        {
            "name" : "Scene",
            "nodes" : [
                0
            ]
        }
    ],
    "nodes" : [
        {
            "mesh" : 0,
            "name" : "Text"
        }
    ],
    "meshes" : [
        {
            "name" : "Text",
            "primitives" : [
                {
                    "attributes" : {
                        "POSITION" : 0,
                        "NORMAL" : 1,
                        "TEXCOORD_0" : 2
                    },
                    "indices" : 3
                }
            ]
        }
    ],
    "accessors" : [
        {
            "bufferView" : 0,
            "componentType" : 5126,
            "count" : 854,
            "max" : [
                0.7168499231338501,
                2.0119001865386963,
                1.758337049295733e-07
            ],
            "min" : [
                -0.6637500524520874,
                0,
                -0.29500001668930054
            ],
            "type" : "VEC3"
        },
        {
            "bufferView" : 1,
            "componentType" : 5126,
            "count" : 854,
            "type" : "VEC3"
        },
        {
            "bufferView" : 2,
            "componentType" : 5126,
            "count" : 854,
            "type" : "VEC2"
        },
        {
            "bufferView" : 3,
            "componentType" : 5123,
            "count" : 1284,
            "type" : "SCALAR"
        }
    ],
    "bufferViews" : [
        {
            "buffer" : 0,
            "byteLength" : 10248,
            "byteOffset" : 0
        },
        {
            "buffer" : 0,
            "byteLength" : 10248,
            "byteOffset" : 10248
        },
        {
            "buffer" : 0,
            "byteLength" : 6832,
            "byteOffset" : 20496
        },
        {
            "buffer" : 0,
            "byteLength" : 2568,
            "byteOffset" : 27328
        }
    ],
    "buffers" : [
        {
            "byteLength" : 29896,
            "uri" : "data:application/octet-stream;base64,"
        }
    ]
}
