{
    "asset" : {
        "generator" : "Khronos glTF Blender I/O v1.1.46",
        "version" : "2.0"
    },
    "scene" : 0,
    "scenes" : [
        {
            "name" : "Scene",
            "nodes" : [
                0
            ]
        }
    ],
    "nodes" : [
        {
            "mesh" : 0,
            "name" : "Text"
        }
    ],
    "meshes" : [
        {
            "name" : "Text",
            "primitives" : [
                {
                    "attributes" : {
                        "POSITION" : 0,
                        "NORMAL" : 1,
                        "TEXCOORD_0" : 2
                    },
                    "indices" : 3
                }
            ]
        }
    ],
    "accessors" : [
        {
            "bufferView" : 0,
            "componentType" : 5126,
            "count" : 797,
            "max" : [
                0.7758499383926392,
                2.038450241088867,
                1.758337049295733e-07
            ],
            "min" : [
                -1.0384000539779663,
                -0.02655000239610672,
                -0.29500001668930054
            ],
            "type" : "VEC3"
        },
        {
            "bufferView" : 1,
            "componentType" : 5126,
            "count" : 797,
            "type" : "VEC3"
        },
        {
            "bufferView" : 2,
            "componentType" : 5126,
            "count" : 797,
            "type" : "VEC2"
        },
        {
            "bufferView" : 3,
            "componentType" : 5123,
            "count" : 1164,
            "type" : "SCALAR"
        }
    ],
    "bufferViews" : [
        {
            "buffer" : 0,
            "byteLength" : 9564,
            "byteOffset" : 0
        },
        {
            "buffer" : 0,
            "byteLength" : 9564,
            "byteOffset" : 9564
        },
        {
            "buffer" : 0,
            "byteLength" : 6376,
            "byteOffset" : 19128
        },
        {
            "buffer" : 0,
            "byteLength" : 2328,
            "byteOffset" : 25504
        }
    ],
    "buffers" : [
        {
            "byteLength" : 27832,
            "uri" : "data:application/octet-stream;base64,"
        }
    ]
}
