{
    "asset" : {
        "generator" : "Khronos glTF Blender I/O v1.1.46",
        "version" : "2.0"
    },
    "scene" : 0,
    "scenes" : [
        {
            "name" : "Scene",
            "nodes" : [
                0
            ]
        }
    ],
    "nodes" : [
        {
            "mesh" : 0,
            "name" : "Cube"
        }
    ],
    "meshes" : [
        {
            "name" : "Cube",
            "primitives" : [
                {
                    "attributes" : {
                        "POSITION" : 0,
                        "NORMAL" : 1,
                        "TEXCOORD_0" : 2
                    },
                    "indices" : 3
                }
            ]
        }
    ],
    "accessors" : [
        {
            "bufferView" : 0,
            "componentType" : 5126,
            "count" : 356,
            "max" : [
                0.431283563375473,
                1.3351244926452637,
                0.3759784698486328
            ],
            "min" : [
                -0.4530986547470093,
                -0.00040734410868026316,
                -0.397341787815094
            ],
            "type" : "VEC3"
        },
        {
            "bufferView" : 1,
            "componentType" : 5126,
            "count" : 356,
            "type" : "VEC3"
        },
        {
            "bufferView" : 2,
            "componentType" : 5126,
            "count" : 356,
            "type" : "VEC2"
        },
        {
            "bufferView" : 3,
            "componentType" : 5123,
            "count" : 546,
            "type" : "SCALAR"
        }
    ],
    "bufferViews" : [
        {
            "buffer" : 0,
            "byteLength" : 4272,
            "byteOffset" : 0
        },
        {
            "buffer" : 0,
            "byteLength" : 4272,
            "byteOffset" : 4272
        },
        {
            "buffer" : 0,
            "byteLength" : 2848,
            "byteOffset" : 8544
        },
        {
            "buffer" : 0,
            "byteLength" : 1092,
            "byteOffset" : 11392
        }
    ],
    "buffers" : [
        {
            "byteLength" : 12484,
            "uri" : "data:application/octet-stream;base64,"
        }
    ]
}
